<?xml version="1.0" standalone="no"?>
<!DOCTYPE svg PUBLIC "-//W3C//DTD SVG 20010904//EN"
 "http://www.w3.org/TR/2001/REC-SVG-20010904/DTD/svg10.dtd">
<svg version="1.0" xmlns="http://www.w3.org/2000/svg"
 width="480.000000pt" height="480.000000pt" viewBox="0 0 480.000000 480.000000"
 preserveAspectRatio="xMidYMid meet">

<g transform="translate(0.000000,480.000000) scale(0.100000,-0.100000)"
fill="#000000" stroke="none">
<path d="M2508 3894 c-77 -18 -129 -46 -175 -93 -57 -58 -80 -90 -92 -131 -10
-35 -19 -42 -134 -99 -68 -33 -128 -61 -134 -61 -19 0 -43 -37 -43 -67 0 -35
18 -54 69 -69 l36 -11 -114 -57 c-63 -31 -131 -61 -152 -67 -36 -11 -39 -10
-96 34 -68 53 -112 67 -213 67 -93 0 -145 -16 -273 -81 -55 -28 -141 -62 -191
-75 -49 -14 -96 -30 -103 -36 -7 -6 -13 -26 -13 -45 0 -27 8 -41 36 -66 20
-18 42 -44 50 -59 22 -43 16 -142 -16 -278 -34 -144 -37 -218 -11 -275 19 -43
82 -105 106 -105 20 0 19 -8 -9 -44 -49 -66 -60 -97 -60 -184 -1 -82 0 -84 32
-113 18 -16 49 -31 70 -35 27 -4 42 -14 54 -34 12 -22 31 -33 74 -46 51 -15
75 -15 208 -5 83 6 166 14 184 17 28 5 32 3 32 -15 0 -44 83 -65 210 -52 19 2
58 0 86 -4 48 -7 54 -5 84 22 32 28 35 29 88 20 39 -7 65 -6 88 2 20 7 61 9
115 5 64 -5 93 -3 120 8 26 12 71 15 179 14 l144 -2 32 28 c31 27 35 28 81 18
61 -14 107 -6 131 24 l18 24 19 -34 c27 -50 98 -112 163 -142 49 -23 73 -27
173 -30 l117 -4 58 37 c132 82 194 198 176 326 -5 35 -12 71 -16 80 -6 14 37
61 112 121 16 13 22 29 22 60 0 37 -6 49 -38 80 -30 29 -47 37 -80 39 -55 4
-54 19 1 19 68 0 74 13 80 170 4 99 13 174 37 280 38 175 43 301 15 368 -25
61 -141 157 -215 179 -214 65 -445 -54 -627 -323 -50 -74 -98 -174 -114 -236
-6 -27 -15 -48 -20 -48 -14 0 -11 20 21 141 69 258 107 487 96 571 -14 104
-66 179 -166 242 -75 47 -195 59 -312 30z m255 -24 c68 -25 124 -82 143 -145
16 -56 18 -179 4 -280 -6 -38 -35 -168 -65 -288 -30 -120 -55 -227 -55 -237 0
-15 7 -20 24 -20 14 0 36 -4 50 -10 24 -9 26 -7 36 33 42 164 114 282 255 422
166 165 354 214 515 133 140 -69 159 -173 94 -495 -28 -137 -37 -204 -38 -293
-1 -111 -2 -115 -26 -127 -14 -7 -41 -13 -61 -13 -37 0 -49 -12 -49 -49 0 -10
-11 -35 -25 -56 -15 -20 -24 -39 -21 -42 2 -3 30 16 61 41 42 35 64 46 90 46
47 0 75 -29 75 -76 0 -30 -7 -43 -36 -68 -115 -98 -107 -87 -94 -136 22 -79
17 -161 -13 -221 -32 -66 -104 -138 -174 -174 -41 -21 -67 -27 -130 -28 -67
-2 -86 2 -133 25 -79 39 -142 108 -180 198 -29 67 -31 82 -27 145 5 71 14 95
54 151 l22 31 -44 36 c-41 35 -115 159 -115 193 0 8 -1 14 -3 14 -2 0 -26 -22
-55 -50 -95 -92 -231 -103 -297 -24 l-20 24 -44 -55 c-84 -105 -211 -132 -289
-61 -37 33 -53 72 -58 144 -5 57 1 93 41 247 65 250 74 293 75 347 0 62 -7 78
-36 78 -26 0 -154 -58 -154 -70 0 -4 7 -22 16 -40 33 -65 31 -113 -17 -455
-12 -85 -17 -160 -13 -191 4 -36 2 -53 -8 -61 -13 -11 -206 -33 -286 -33 -57
0 -72 27 -43 76 22 37 91 421 91 507 0 50 -17 94 -46 117 -15 13 -16 11 -10
-35 8 -63 -6 -177 -41 -319 -27 -110 -36 -235 -20 -267 6 -11 0 -26 -18 -47
-21 -25 -24 -35 -16 -50 8 -14 5 -28 -9 -55 -26 -48 -53 -236 -45 -308 9 -74
-2 -84 -97 -93 -40 -3 -124 -12 -186 -18 -107 -11 -114 -10 -140 9 -14 11 -29
31 -32 44 -5 19 -12 23 -32 21 -41 -5 -97 23 -109 55 -16 43 -12 128 9 177 11
24 36 61 55 83 l36 40 -37 16 c-125 55 -147 143 -92 374 31 129 38 221 20 269
-6 15 -32 47 -57 70 -44 39 -46 44 -36 67 9 18 25 29 55 37 116 31 179 55 240
90 119 68 173 83 285 78 111 -5 166 -26 203 -78 34 -48 60 -42 282 64 64 31
122 56 127 56 6 0 11 4 11 8 0 4 -30 13 -67 19 -70 12 -83 22 -83 63 0 22 16
33 143 94 l143 70 29 60 c16 36 50 82 81 113 45 43 68 57 132 77 99 32 208 35
285 6z m-537 -757 c-4 -43 -22 -130 -41 -193 -35 -121 -42 -120 -25 3 10 67 9
82 -10 134 -11 32 -21 62 -23 67 -2 8 87 65 102 66 2 0 1 -35 -3 -77z m-79
-345 c-3 -7 -5 -2 -5 12 0 14 2 19 5 13 2 -7 2 -19 0 -25z m5 -336 c30 -44 78
-70 150 -83 62 -11 76 -11 124 6 36 12 67 32 94 62 42 44 54 50 65 33 3 -5 2
-10 -4 -10 -16 0 -51 -65 -51 -95 0 -16 -9 -34 -22 -45 -21 -17 -23 -17 -37 2
-18 22 -31 23 -126 13 -70 -7 -145 -42 -145 -67 0 -6 -10 -2 -22 9 -13 11 -35
23 -49 26 -32 8 -94 -9 -129 -35 -26 -19 -29 -19 -58 -4 -47 24 -105 20 -182
-14 -38 -16 -71 -30 -74 -30 -14 0 -4 44 15 72 17 24 19 34 11 53 -6 13 -8 26
-5 29 10 9 52 7 73 -4 18 -10 276 11 312 25 22 9 28 39 16 79 -6 19 -7 47 -3
62 7 28 7 28 19 -16 6 -25 19 -56 28 -68z m791 -5 c25 -35 56 -71 69 -79 l23
-16 -21 -22 -21 -22 -32 31 c-17 17 -36 31 -41 31 -5 0 -16 13 -25 29 -8 16
-24 32 -35 36 -27 9 -25 29 5 45 14 7 25 17 25 22 0 16 9 7 53 -55z m-137 15
c53 -35 25 -122 -40 -122 -17 0 -38 -5 -46 -10 -13 -8 -13 -11 2 -27 17 -16
19 -16 40 5 56 52 146 64 181 24 29 -33 30 -77 2 -172 -22 -73 -25 -96 -16
-120 9 -26 7 -33 -12 -50 -65 -61 -149 -12 -132 78 3 18 9 40 12 48 4 10 -3
14 -25 14 -26 0 -31 -5 -37 -31 -4 -17 -4 -50 -1 -73 6 -37 3 -45 -25 -74 -37
-38 -73 -41 -106 -10 -20 18 -26 20 -33 8 -6 -9 -39 -16 -102 -21 -51 -4 -111
-12 -133 -19 -46 -14 -115 -7 -150 16 -14 9 -25 12 -25 7 0 -13 -55 -43 -79
-43 -12 0 -33 12 -48 26 -23 23 -25 30 -19 83 6 56 6 58 -16 57 -17 -1 -24
-10 -32 -40 -6 -27 -5 -45 3 -58 16 -26 14 -39 -12 -71 -30 -37 -84 -46 -114
-19 -13 11 -23 26 -23 33 0 8 -5 21 -11 29 -8 11 -9 7 -4 -16 8 -40 -6 -50
-76 -57 -78 -7 -87 0 -70 60 7 26 15 82 18 123 5 67 3 77 -16 94 -26 23 -27
45 -3 53 9 3 51 21 93 39 92 41 153 45 193 13 27 -21 27 -21 49 -1 31 27 57
40 92 43 60 4 76 -1 93 -31 20 -36 29 -38 34 -8 4 31 63 68 107 68 20 0 52 4
71 8 68 15 86 -6 56 -66 -7 -15 -16 -42 -19 -60 -10 -51 14 -35 30 20 9 31 26
58 54 83 34 31 42 44 43 78 2 31 9 45 32 63 31 25 73 31 91 13 8 -8 19 -6 39
5 31 16 72 20 90 8z m-1140 -408 c-4 -20 -10 -34 -13 -30 -3 3 -2 21 1 42 4
20 10 34 13 30 3 -3 2 -21 -1 -42z"/>
<path d="M2505 3823 c-27 -8 -68 -27 -90 -42 -43 -29 -108 -118 -122 -166 -7
-26 -26 -39 -146 -100 -151 -76 -152 -79 -33 -91 45 -5 87 -1 140 11 71 15 81
15 117 1 86 -35 203 -5 268 69 31 36 33 42 29 97 -3 35 -11 65 -20 74 -26 26
-96 28 -162 5 -83 -29 -96 -27 -62 8 33 34 110 61 177 61 40 0 55 -5 81 -29
30 -27 33 -34 36 -103 5 -88 -8 -155 -89 -478 -109 -432 -115 -536 -36 -609
21 -19 37 -24 80 -24 117 0 207 104 207 239 0 56 -4 70 -22 85 -29 26 -54 24
-83 -6 -23 -22 -25 -32 -25 -119 0 -52 -3 -101 -6 -110 -21 -54 -49 42 -39
134 12 112 33 207 105 485 17 66 37 161 45 210 49 299 -13 416 -219 414 -45 0
-103 -7 -131 -16z m105 -237 c0 -30 -17 -50 -65 -75 -43 -23 -90 -27 -100 -10
-8 11 2 20 89 79 61 42 76 43 76 6z"/>
<path d="M3421 3455 c-83 -24 -159 -72 -241 -155 -109 -109 -167 -199 -220
-345 -31 -85 -39 -265 -15 -355 30 -119 89 -195 181 -236 44 -19 71 -24 142
-24 77 0 92 3 134 28 62 36 116 86 128 118 15 37 12 48 -7 33 -24 -20 -196
-17 -244 4 -90 40 -137 124 -146 258 -15 234 108 515 261 594 69 35 117 34
150 -6 14 -17 26 -41 26 -53 0 -12 -16 -92 -35 -177 -19 -85 -35 -162 -35
-171 0 -35 -18 -17 -24 25 -17 109 -45 157 -92 157 -47 0 -137 -148 -151 -246
-7 -56 10 -94 44 -94 30 0 40 26 58 145 17 114 30 148 52 143 31 -6 46 -58 51
-168 3 -88 0 -124 -23 -223 -14 -66 -25 -121 -23 -123 4 -4 228 14 264 21 18
4 20 12 21 102 1 69 11 151 37 279 37 184 45 299 25 351 -14 37 -56 81 -100
104 -52 26 -151 32 -218 14z"/>
<path d="M2585 3405 c-49 -24 -72 -30 -127 -30 l-67 0 43 -37 c56 -48 87 -119
93 -218 5 -63 -1 -107 -31 -252 -39 -185 -44 -270 -16 -276 13 -2 15 10 12 75
-4 81 34 282 93 503 27 99 65 264 62 265 -1 0 -29 -13 -62 -30z m22 -72 c-3
-10 -11 -42 -18 -70 -12 -50 -29 -72 -29 -38 0 9 -21 38 -46 65 l-46 49 64 4
c34 2 67 4 71 5 5 1 6 -6 4 -15z"/>
<path d="M2320 3389 c0 -5 5 -7 10 -4 6 3 10 8 10 11 0 2 -4 4 -10 4 -5 0 -10
-5 -10 -11z"/>
<path d="M2140 3326 c-36 -12 -117 -48 -180 -78 -63 -31 -133 -61 -155 -68
-55 -17 -60 -24 -32 -46 13 -11 36 -38 52 -62 27 -41 28 -45 22 -135 -8 -120
-63 -443 -82 -480 l-15 -30 83 7 c45 4 101 9 125 13 42 5 42 6 36 39 -6 32 3
112 42 377 26 183 14 246 -56 282 -16 8 -30 18 -30 21 0 2 50 29 111 59 130
64 175 70 214 30 45 -44 36 -127 -49 -450 -26 -98 -38 -164 -39 -221 -2 -74 0
-83 26 -117 35 -46 76 -55 136 -31 43 17 110 78 111 100 0 7 -11 19 -25 28
-22 14 -25 24 -25 74 0 53 19 166 55 322 45 199 -13 351 -144 379 -74 16 -108
14 -181 -13z"/>
<path d="M3422 3333 c-34 -16 -112 -89 -112 -104 0 -4 -6 -14 -13 -21 -16 -16
-72 -132 -81 -168 -4 -14 7 0 23 30 62 117 140 156 212 107 l37 -25 17 84 c15
68 16 86 5 99 -16 19 -46 19 -88 -2z m67 -84 c-14 -65 -12 -63 -36 -50 -10 5
-26 12 -36 15 -10 3 -17 12 -15 19 5 14 89 80 94 74 3 -2 -1 -28 -7 -58z"/>
<path d="M1324 3251 c-22 -9 -51 -23 -65 -32 -54 -36 -153 -80 -212 -95 -34
-8 -68 -17 -75 -20 -9 -3 -2 -18 23 -48 65 -80 71 -157 25 -354 -16 -72 -30
-153 -30 -181 0 -93 61 -151 159 -151 64 0 118 23 162 70 41 43 59 96 59 169
0 58 -23 91 -64 91 -38 0 -56 -35 -56 -110 -1 -79 -32 -153 -67 -158 -21 -3
-23 1 -23 46 0 27 14 103 32 168 27 102 32 137 32 242 l1 123 -42 40 c-47 44
-50 49 -27 49 21 0 110 39 159 69 58 36 125 35 162 -2 26 -25 28 -32 26 -106
-1 -84 -31 -220 -83 -387 -16 -49 -29 -170 -23 -213 8 -57 34 -81 89 -81 46 0
92 18 126 50 15 13 17 22 9 41 -10 29 5 138 42 304 46 199 44 306 -6 405 -34
68 -85 90 -202 89 -58 -1 -104 -7 -131 -18z"/>
<path d="M1380 3143 c-8 -3 -43 -21 -78 -40 -62 -35 -63 -36 -45 -55 16 -17
18 -39 18 -159 l0 -139 35 0 c20 0 41 -5 48 -12 20 -20 31 2 62 126 37 146 41
259 11 276 -21 11 -28 11 -51 3z m54 -110 c-10 -99 -56 -268 -73 -268 -10 0
-14 21 -17 90 -1 50 -9 110 -18 134 -8 25 -13 48 -10 53 7 11 96 57 112 58 11
0 12 -14 6 -67z"/>
<path d="M3372 2874 c-15 -75 -47 -114 -92 -114 -41 0 -66 14 -85 48 -16 26
-16 25 -11 -38 6 -80 25 -126 68 -166 61 -58 70 -55 95 34 32 113 45 191 41
247 l-3 50 -13 -61z m-59 -145 c23 -6 37 -15 34 -22 -2 -7 -10 -36 -17 -64 -8
-30 -19 -53 -27 -53 -18 0 -42 51 -50 105 -6 50 -4 52 60 34z"/>
<path d="M3597 2358 c-98 -97 -186 -198 -241 -276 l-40 -55 -15 34 c-8 19 -21
50 -29 69 -9 19 -26 50 -40 68 -19 26 -27 31 -37 22 -12 -10 -8 -23 20 -78 35
-70 65 -152 65 -177 0 -8 9 -15 19 -15 19 0 42 24 91 95 49 70 251 300 290
330 40 31 48 57 18 63 -10 2 -49 -29 -101 -80z"/>
<path d="M1311 2370 l-34 -29 36 -14 c19 -8 40 -23 46 -34 11 -17 11 -17 9 2
-1 11 1 33 5 48 7 27 -5 58 -22 57 -3 -1 -21 -14 -40 -30z"/>
<path d="M3473 2351 c-31 -26 -29 -33 10 -29 24 2 32 8 32 22 0 26 -16 29 -42
7z"/>
<path d="M1550 2334 c-8 -1 -40 -5 -70 -9 l-55 -6 -1 -112 c-1 -131 -15 -194
-47 -206 -36 -14 -41 2 -30 90 7 49 7 94 2 112 -27 95 -153 123 -236 53 -66
-56 -101 -197 -57 -231 25 -19 37 -19 63 3 16 13 22 33 27 92 4 41 13 85 20
98 19 30 52 29 60 -3 6 -23 -10 -113 -26 -145 -17 -33 -21 -105 -7 -124 13
-17 21 -18 138 -7 68 6 143 14 167 17 l42 5 0 51 c0 79 31 280 46 306 13 20
13 22 -3 21 -10 -1 -25 -3 -33 -5z"/>
<path d="M3086 2276 c-70 -93 -57 -227 31 -343 66 -87 210 -119 316 -70 105
48 171 138 171 237 1 75 -10 112 -32 108 -14 -3 -18 -18 -22 -89 -5 -79 -8
-90 -40 -132 -35 -47 -132 -107 -171 -107 -88 0 -165 44 -218 125 -23 35 -26
50 -26 126 0 83 2 89 32 127 l32 40 -25 5 c-19 3 -30 -3 -48 -27z"/>
<path d="M3268 2264 c-5 -4 30 -70 59 -113 2 -2 12 7 24 20 11 13 31 36 45 51
13 15 24 32 24 38 0 10 -142 15 -152 4z m96 -47 c-3 -9 -12 -13 -20 -10 -19 7
-18 21 4 25 22 5 24 4 16 -15z"/>
<path d="M3143 2107 c6 -37 67 -141 67 -114 0 22 -56 147 -66 147 -3 0 -4 -15
-1 -33z"/>
<path d="M3458 2053 c-9 -16 -26 -39 -37 -52 -29 -33 -17 -40 15 -10 23 22 54
69 54 84 0 14 -17 2 -32 -22z"/>
<path d="M2733 2400 c-15 -9 -34 -24 -42 -33 -19 -24 -31 -21 -31 8 0 38 -29
44 -57 11 -24 -28 -30 -56 -13 -56 5 0 16 15 24 33 13 28 14 29 15 9 1 -13 -4
-32 -9 -43 -15 -27 12 -25 75 6 28 13 62 25 78 25 22 0 27 5 27 24 0 31 -30
39 -67 16z"/>
<path d="M2845 2298 c-60 -17 -95 -65 -95 -129 0 -26 3 -30 23 -27 19 3 23 11
27 54 6 59 24 86 54 82 17 -2 21 -9 18 -38 -1 -19 -14 -65 -27 -103 -29 -78
-33 -145 -10 -153 8 -4 25 -4 38 0 20 5 22 11 19 39 -2 19 6 69 17 111 12 42
21 91 21 110 0 49 -32 69 -85 54z"/>
<path d="M2584 2282 c-66 -22 -98 -77 -119 -208 -9 -53 -20 -106 -26 -116 -9
-16 -5 -18 46 -18 l55 0 0 51 c0 62 17 134 36 150 25 20 26 2 5 -46 -26 -58
-27 -78 -3 -73 33 6 56 135 25 145 -12 4 -37 -18 -61 -53 -11 -16 -12 -14 -7
21 9 59 46 119 74 123 46 7 53 -47 21 -168 -26 -99 -26 -136 1 -150 32 -18 73
13 66 49 -3 16 0 55 8 87 39 163 -7 241 -121 206z"/>
<path d="M2390 2255 c0 -17 -25 -20 -35 -5 -18 29 -98 1 -115 -40 -15 -36 -5
-56 54 -104 25 -20 48 -46 51 -57 16 -49 -54 -108 -101 -87 -27 12 -39 51 -24
78 27 50 95 26 72 -25 -14 -30 -33 -26 -25 5 7 25 -22 28 -31 4 -8 -21 11 -44
35 -44 47 0 66 68 27 94 -71 45 -155 -67 -100 -133 58 -72 242 0 242 95 0 44
-20 75 -73 110 -72 48 -77 54 -66 75 15 30 49 24 62 -11 12 -31 37 -41 37 -15
0 9 7 29 15 45 15 28 14 30 -5 30 -11 0 -20 -7 -20 -15z"/>
<path d="M2087 2232 c-15 -2 -46 -21 -68 -42 -35 -33 -40 -43 -37 -77 2 -30 7
-38 23 -38 17 0 21 8 25 51 6 56 23 84 50 84 30 0 30 -26 0 -126 -46 -149 -38
-197 27 -173 18 7 21 14 17 41 -5 32 -1 59 30 167 23 81 -1 122 -67 113z"/>
<path d="M2600 2210 c0 -5 5 -10 10 -10 6 0 10 5 10 10 0 6 -4 10 -10 10 -5 0
-10 -4 -10 -10z"/>
<path d="M1785 2184 c-33 -14 -70 -30 -83 -35 l-22 -9 20 -20 c22 -22 25 -51
10 -131 -5 -30 -11 -63 -13 -74 -1 -11 -6 -26 -10 -32 -6 -10 3 -13 36 -13
l44 0 13 108 c15 120 15 132 -6 148 -21 16 -19 18 36 44 79 37 96 9 64 -107
-38 -140 -40 -157 -14 -183 21 -21 42 -18 72 8 14 11 15 18 7 28 -7 8 -9 31
-5 56 14 98 18 159 12 182 -15 61 -64 71 -161 30z"/>
<path d="M2190 2141 c0 -11 -3 -26 -6 -35 -7 -17 3 -20 24 -7 9 5 11 17 6 34
-7 31 -24 36 -24 8z"/>
<path d="M1827 2143 c-2 -5 -4 -39 -4 -78 -1 -75 7 -63 26 38 6 36 5 47 -5 47
-7 0 -15 -3 -17 -7z"/>
<path d="M2853 1633 c-14 -3 -25 -14 -29 -29 -6 -21 -12 -24 -58 -24 -28 0
-60 -3 -72 -6 -21 -6 -71 -80 -61 -91 3 -3 84 -2 180 2 l175 8 11 55 c18 90
17 94 -26 90 -30 -2 -38 -8 -43 -27 -8 -35 -29 -39 -27 -5 2 30 -9 35 -50 27z"/>
<path d="M2049 1612 c-33 -3 -37 -7 -41 -34 -4 -23 -1 -32 13 -35 14 -4 17
-12 12 -34 -7 -38 10 -44 89 -30 70 12 102 31 136 81 33 49 29 60 -20 60 -37
-1 -46 -5 -63 -32 -29 -45 -50 -50 -42 -9 4 17 3 31 -1 32 -30 3 -52 4 -83 1z"/>
<path d="M1088 1533 c-35 -42 -49 -73 -36 -78 7 -3 89 -2 183 2 l169 8 7 35
c4 19 5 38 3 42 -3 5 -74 8 -158 8 -133 0 -155 -2 -168 -17z"/>
<path d="M3645 1509 c-76 -18 -154 -107 -155 -176 0 -21 4 -23 59 -23 59 0 60
0 71 35 15 45 35 65 66 65 33 0 41 -37 17 -88 -13 -30 -46 -63 -120 -121 -112
-88 -149 -134 -159 -198 l-7 -43 171 0 170 0 7 33 c4 17 9 40 11 50 5 15 -4
17 -95 17 -56 0 -101 4 -101 9 0 5 37 36 83 69 107 78 151 127 172 194 14 43
15 61 6 95 -19 69 -103 104 -196 82z"/>
<path d="M1312 1420 c-10 -17 -23 -20 -74 -20 -78 0 -139 -28 -179 -83 -45
-62 -40 -77 26 -77 50 0 56 2 65 25 20 53 100 56 100 5 0 -34 -17 -45 -125
-80 -102 -34 -155 -97 -155 -186 0 -80 163 -129 190 -58 19 49 13 64 -25 64
-32 0 -35 3 -35 28 0 16 6 36 13 45 13 17 102 59 110 51 2 -3 -4 -44 -14 -92
-27 -128 -29 -122 40 -122 57 0 60 1 65 28 48 246 66 346 66 372 0 20 10 44
25 62 14 17 24 36 22 42 -2 6 -26 12 -53 14 -40 2 -51 -1 -62 -18z"/>
<path d="M3159 1430 c-41 -12 -80 -41 -110 -84 -16 -21 -29 -43 -29 -48 0 -4
24 -8 53 -8 44 0 58 4 77 25 33 35 77 34 86 -1 14 -57 -18 -217 -50 -249 -43
-44 -89 -17 -84 49 3 35 7 42 28 45 31 4 40 17 40 60 l0 34 -80 -5 c-44 -3
-82 -7 -85 -10 -13 -12 -26 -126 -20 -170 17 -120 143 -160 256 -82 93 64 152
273 108 385 -21 53 -114 82 -190 59z"/>
<path d="M2363 1419 c-27 -6 -54 -23 -79 -48 -37 -39 -67 -94 -57 -105 4 -3
29 -6 57 -6 46 1 53 4 71 33 12 18 29 32 40 32 18 0 20 -6 17 -50 -1 -27 -13
-107 -27 -177 -14 -69 -25 -133 -25 -142 0 -13 12 -16 59 -16 l59 0 37 197
c38 195 38 196 19 231 -26 49 -92 69 -171 51z"/>
<path d="M2636 1413 c-7 -26 -73 -370 -81 -425 l-7 -48 55 0 c46 0 56 3 60 19
5 19 6 19 46 -1 31 -15 51 -19 84 -14 76 12 109 55 133 171 23 116 43 224 50
273 l7 42 -60 0 -60 0 -28 -147 c-44 -240 -48 -247 -102 -241 -40 4 -40 34 -4
218 17 84 28 156 25 161 -3 5 -29 9 -59 9 -42 0 -55 -4 -59 -17z"/>
<path d="M1965 1404 c-46 -17 -89 -55 -104 -93 -5 -14 -19 -75 -31 -136 -12
-60 -25 -129 -30 -152 -6 -23 -10 -53 -10 -67 0 -25 2 -26 59 -26 l58 0 12 74
c14 84 37 121 81 131 35 8 35 8 44 59 l7 39 -46 -6 -47 -7 7 28 c12 51 33 72
71 72 23 0 37 -6 41 -16 3 -9 -8 -89 -26 -178 -17 -88 -31 -170 -31 -180 0
-17 6 -18 57 -13 61 6 73 16 73 62 0 17 4 46 10 64 5 19 19 86 30 148 19 106
19 117 4 148 -28 59 -137 83 -229 49z"/>
<path d="M1461 1393 c-13 -26 -71 -342 -71 -391 0 -32 6 -45 26 -61 34 -27 93
-27 144 -1 34 17 40 18 40 5 0 -12 13 -15 59 -15 l59 0 7 43 c4 23 20 107 35
187 16 80 32 169 36 198 l7 52 -60 0 -59 0 -31 -164 c-37 -199 -46 -220 -92
-224 -36 -4 -54 12 -46 38 13 43 63 335 59 342 -3 4 -27 8 -54 8 -37 0 -52 -4
-59 -17z"/>
</g>
</svg>
